<?xml version="1.0" standalone="no"?>
<!DOCTYPE svg PUBLIC "-//W3C//DTD SVG 20010904//EN"
 "http://www.w3.org/TR/2001/REC-SVG-20010904/DTD/svg10.dtd">
<svg version="1.0" xmlns="http://www.w3.org/2000/svg"
 width="650.000000pt" height="366.000000pt" viewBox="0 0 650.000000 366.000000"
 preserveAspectRatio="xMidYMid meet">

<g transform="translate(0.000000,366.000000) scale(0.100000,-0.100000)"
fill="#000000" stroke="none">
<path d="M40 1840 c0 -762 2 -872 15 -877 9 -3 43 0 78 5 34 6 88 14 120 17
l57 6 0 477 c0 367 3 473 12 464 6 -6 78 -209 158 -449 116 -345 151 -439 165
-442 34 -6 246 21 259 34 9 10 12 187 12 821 l-1 809 -127 3 -128 3 0 -478 c0
-430 -5 -526 -23 -496 -3 5 -40 108 -82 229 -42 120 -103 293 -135 384 -32 91
-74 208 -92 260 l-33 95 -128 3 -127 3 0 -871z"/>
<path d="M1190 1906 c0 -443 3 -807 8 -809 4 -3 81 1 172 9 91 7 237 18 325
24 88 7 176 15 195 19 l35 7 3 123 3 124 -143 -7 c-79 -3 -187 -9 -241 -12
l-97 -7 2 209 3 209 177 3 c209 3 190 -13 186 157 l-3 110 -182 -3 -183 -3 0
190 0 191 238 2 237 3 3 133 3 132 -371 0 -370 0 0 -804z"/>
<path d="M2120 2581 c0 -152 -14 -141 162 -141 l118 0 2 -632 3 -633 125 0
125 0 3 633 2 632 140 0 140 0 0 135 0 135 -410 0 -410 0 0 -129z"/>
<path d="M3128 1950 l2 -761 123 3 122 3 5 310 5 310 170 1 c94 1 178 2 188 3
15 1 17 14 17 131 l0 130 -187 2 -188 3 -3 178 -2 177 244 0 244 0 7 124 c4
68 4 129 1 135 -5 8 -121 11 -379 11 l-372 0 3 -760z"/>
<path d="M4060 2703 c-2 -40 1 -1527 3 -1529 1 -1 119 -7 262 -13 143 -6 304
-14 358 -18 l97 -6 0 130 0 130 -192 11 c-106 7 -210 12 -230 12 l-38 0 0 645
0 645 -130 0 c-71 0 -130 -3 -130 -7z"/>
<path d="M5020 1916 c0 -748 1 -795 18 -800 9 -2 65 -8 124 -12 l108 -6 2 806
3 806 -127 0 -128 0 0 -794z"/>
<path d="M5525 2693 c13 -30 125 -323 155 -403 15 -41 44 -118 65 -170 20 -52
48 -127 63 -166 l26 -71 -28 -64 c-106 -243 -202 -463 -222 -511 -13 -31 -37
-85 -52 -120 -41 -88 -46 -108 -30 -108 7 0 67 -7 133 -15 95 -12 122 -12 131
-3 9 11 131 293 174 406 8 20 19 32 27 30 9 -2 37 -63 69 -148 30 -80 59 -154
64 -165 5 -11 23 -56 39 -100 l28 -80 137 -24 c76 -13 140 -20 143 -17 4 3 -3
30 -14 59 -12 28 -46 120 -76 202 -30 83 -97 262 -148 398 l-93 249 16 41 c21
55 87 216 98 242 5 11 21 49 36 85 14 36 32 79 39 95 8 17 23 53 34 81 11 28
29 71 39 95 11 24 27 62 35 84 8 22 23 57 31 78 l16 37 -145 0 c-130 0 -146
-2 -152 -17 -12 -37 -132 -340 -153 -386 -12 -27 -26 -47 -32 -45 -11 4 -51
105 -163 408 l-13 35 -142 3 c-133 2 -142 1 -135 -15z"/>
</g>
</svg>
